<svg xmlns="http://www.w3.org/2000/svg" xmlns:svg="http://www.w3.org/2000/svg" xmlns:xlink="http://www.w3.org/1999/xlink" id="svg129" width="287" height="287" fill="none" version="1.1" viewBox="0 0 287 287"><metadata id="metadata133"/><defs id="defs127"><linearGradient id="paint0_linear" x1="7.58" x2="279.42" y1="7.58" y2="279.42" gradientUnits="userSpaceOnUse"><stop id="stop32" stop-color="#fff"/><stop id="stop34" offset="1" stop-color="#E5E5E5"/></linearGradient><linearGradient id="paint1_linear" x1="143.25" x2="143.25" y1="66" y2="40.94" gradientUnits="userSpaceOnUse"><stop id="stop37" stop-color="#29BFD3"/><stop id="stop39" offset="1" stop-color="#0D8898"/></linearGradient><linearGradient id="paint2_linear" x1="143.25" x2="143.25" y1="66" y2="40.94" gradientUnits="userSpaceOnUse"><stop id="stop42" stop-color="#fff"/><stop id="stop44" offset="1" stop-color="#fff" stop-opacity="0"/></linearGradient><linearGradient id="paint3_linear" x1="65.72" x2="40.66" y1="142.47" y2="142.47" gradientUnits="userSpaceOnUse"><stop id="stop47" stop-color="#29BFD3"/><stop id="stop49" offset="1" stop-color="#0D8898"/></linearGradient><linearGradient id="paint4_linear" x1="65.72" x2="40.66" y1="142.47" y2="142.47" gradientUnits="userSpaceOnUse"><stop id="stop52" stop-color="#fff"/><stop id="stop54" offset="1" stop-color="#fff" stop-opacity="0"/></linearGradient><linearGradient id="paint5_linear" x1="62.58" x2="44.86" y1="62.14" y2="44.42" gradientUnits="userSpaceOnUse"><stop id="stop57" stop-color="#29BFD3"/><stop id="stop59" offset="1" stop-color="#0D8898"/></linearGradient><linearGradient id="paint6_linear" x1="62.58" x2="44.86" y1="62.14" y2="44.42" gradientUnits="userSpaceOnUse"><stop id="stop62" stop-color="#fff"/><stop id="stop64" offset="1" stop-color="#fff" stop-opacity="0"/></linearGradient><linearGradient id="paint7_linear" x1="223.86" x2="241.58" y1="221.873" y2="239.593" gradientUnits="userSpaceOnUse"><stop id="stop67" stop-color="#29BFD3"/><stop id="stop69" offset="1" stop-color="#0D8898"/></linearGradient><linearGradient id="paint8_linear" x1="223.86" x2="241.58" y1="221.873" y2="239.593" gradientUnits="userSpaceOnUse"><stop id="stop72" stop-color="#fff"/><stop id="stop74" offset="1" stop-color="#fff" stop-opacity="0"/></linearGradient><linearGradient id="paint9_linear" x1="64.455" x2="42.752" y1="226.33" y2="238.86" gradientUnits="userSpaceOnUse"><stop id="stop77" stop-color="#29BFD3"/><stop id="stop79" offset="1" stop-color="#0D8898"/></linearGradient><linearGradient id="paint10_linear" x1="64.455" x2="42.752" y1="226.33" y2="238.86" gradientUnits="userSpaceOnUse"><stop id="stop82" stop-color="#fff"/><stop id="stop84" offset="1" stop-color="#fff" stop-opacity="0"/></linearGradient><linearGradient id="paint11_linear" x1="223.58" x2="241.3" y1="62.86" y2="45.14" gradientUnits="userSpaceOnUse"><stop id="stop87" stop-color="#29BFD3"/><stop id="stop89" offset="1" stop-color="#0D8898"/></linearGradient><linearGradient id="paint12_linear" x1="223.58" x2="241.3" y1="62.86" y2="45.14" gradientUnits="userSpaceOnUse"><stop id="stop92" stop-color="#fff"/><stop id="stop94" offset="1" stop-color="#fff" stop-opacity="0"/></linearGradient><linearGradient id="paint13_linear" x1="223.58" x2="241.3" y1="150.86" y2="133.14" gradientUnits="userSpaceOnUse"><stop id="stop97" stop-color="#29BFD3"/><stop id="stop99" offset="1" stop-color="#0D8898"/></linearGradient><linearGradient id="paint14_linear" x1="223.58" x2="241.3" y1="150.86" y2="133.14" gradientUnits="userSpaceOnUse"><stop id="stop102" stop-color="#fff"/><stop id="stop104" offset="1" stop-color="#fff" stop-opacity="0"/></linearGradient><mask id="mask1339" maskUnits="userSpaceOnUse"><g id="g1345" transform="scale(-1,1)"><rect style="opacity:1;vector-effect:none;fill:url(#linearGradient1347);fill-opacity:1;stroke:none;stroke-width:11.88001633;stroke-linecap:round;stroke-linejoin:round;stroke-miterlimit:4;stroke-dasharray:none;stroke-dashoffset:0;stroke-opacity:1" id="rect1341" width="28.5" height="39" x="115" y="224.8"/><rect style="opacity:1;vector-effect:none;fill:url(#linearGradient1349);fill-opacity:1;stroke:none;stroke-width:11.88001633;stroke-linecap:round;stroke-linejoin:round;stroke-miterlimit:4;stroke-dasharray:none;stroke-dashoffset:0;stroke-opacity:1" id="rect1343" width="28.5" height="39" x="115" y="224.8"/></g></mask><linearGradient id="linearGradient1347" x1="115" x2="143.5" y1="244.3" y2="244.3" gradientUnits="userSpaceOnUse" xlink:href="#linearGradient1255"/><linearGradient id="linearGradient1255"><stop id="stop1247" offset="0" style="stop-color:#000;stop-opacity:1"/><stop style="stop-color:#7b7b7b;stop-opacity:1" id="stop1249" offset=".525"/><stop id="stop1251" offset=".787" style="stop-color:#b6b6b6;stop-opacity:1"/><stop id="stop1253" offset="1" style="stop-color:#fff;stop-opacity:1"/></linearGradient><linearGradient id="linearGradient1349" x1="128.147" x2="128.147" y1="224.994" y2="263.302" gradientTransform="translate(0,3e-6)" gradientUnits="userSpaceOnUse" xlink:href="#linearGradient1245"/><linearGradient id="linearGradient1245"><stop id="stop1237" offset="0" style="stop-color:#fff;stop-opacity:0"/><stop style="stop-color:#fff;stop-opacity:.48235294" id="stop1239" offset=".525"/><stop id="stop1241" offset=".787" style="stop-color:#fff;stop-opacity:.71372551"/><stop id="stop1243" offset="1" style="stop-color:#fff;stop-opacity:1"/></linearGradient><radialGradient id="paint17_angular" cx="0" cy="0" r="1" gradientTransform="matrix(0,-33.9,33.9,0,143.9,134.9)" gradientUnits="userSpaceOnUse"><stop id="stop117" stop-color="#FFCB52"/><stop id="stop119" offset="1" stop-color="#FF7B02"/></radialGradient><mask id="mask1327" maskUnits="userSpaceOnUse"><g id="g1333" transform="matrix(-1,0,0,1,287,0)"><rect style="opacity:1;vector-effect:none;fill:url(#linearGradient1347);fill-opacity:1;stroke:none;stroke-width:11.88001633;stroke-linecap:round;stroke-linejoin:round;stroke-miterlimit:4;stroke-dasharray:none;stroke-dashoffset:0;stroke-opacity:1" id="rect1329" width="28.5" height="39" x="115" y="224.8"/><rect style="opacity:1;vector-effect:none;fill:url(#linearGradient1349);fill-opacity:1;stroke:none;stroke-width:11.88001633;stroke-linecap:round;stroke-linejoin:round;stroke-miterlimit:4;stroke-dasharray:none;stroke-dashoffset:0;stroke-opacity:1" id="rect1331" width="28.5" height="39" x="115" y="224.8"/></g></mask><linearGradient id="paint16_linear-9" x1="143.5" x2="143.5" y1="185.8" y2="263.8" gradientUnits="userSpaceOnUse"><stop id="stop112-2" stop-color="#fff"/><stop id="stop114-0" offset="1" stop-color="#fff" stop-opacity="0"/></linearGradient><linearGradient id="paint18_linear-6" x1="143.9" x2="143.9" y1="168.8" y2="101" gradientUnits="userSpaceOnUse"><stop id="stop122-2" stop-color="#fff"/><stop id="stop124-6" offset="1" stop-color="#fff" stop-opacity="0"/></linearGradient><meshgradient id="meshgradient3874" x="761.888" y="96.072" gradientTransform="matrix(0.63152165,0,0,0.63152165,-579.56881,-204.5716)" gradientUnits="userSpaceOnUse"><meshrow id="meshrow3942"><meshpatch id="meshpatch3884"><stop id="stop3876" path="c 0,15.3202 -6.08592,30.0129 -16.9189,40.8459" style="stop-color:#ffcb52;stop-opacity:1"/><stop id="stop3878" path="l -40.8459,-40.8325" style="stop-color:#ffc047;stop-opacity:1"/><stop id="stop3880" path="l -2.00666e-05,-0.0134074" style="stop-color:#ffc047;stop-opacity:1"/><stop id="stop3882" path="l 57.7648,-3.84e-05" style="stop-color:#ffcb52;stop-opacity:1"/></meshpatch><meshpatch id="meshpatch3892"><stop id="stop3886" path="c -10.833,10.833 -25.5257,16.9189 -40.8459,16.9189"/><stop id="stop3888" path="l 0.0134329,-57.7917" style="stop-color:#ffb53c;stop-opacity:1"/><stop id="stop3890" path="l -0.0134359,0.040327" style="stop-color:#ffb53c;stop-opacity:1"/></meshpatch><meshpatch id="meshpatch3900"><stop id="stop3894" path="c -15.3202,0 -30.0129,-6.08592 -40.8459,-16.9189"/><stop id="stop3896" path="l 40.8325,-40.8727" style="stop-color:#ffac33;stop-opacity:1"/><stop id="stop3898" path="l 0.0268329,-8.12383e-05" style="stop-color:#ffac33;stop-opacity:1"/></meshpatch><meshpatch id="meshpatch3908"><stop id="stop3902" path="c -10.833,-10.833 -16.9189,-25.5257 -16.9189,-40.8459"/><stop id="stop3904" path="l 57.6977,-0.0268701" style="stop-color:#ffa229;stop-opacity:1"/><stop id="stop3906" path="l 0.0537,7.01e-05" style="stop-color:#ffa229;stop-opacity:1"/></meshpatch><meshpatch id="meshpatch3916"><stop id="stop3910" path="c 0,-15.3202 6.08592,-30.0129 16.9189,-40.8459"/><stop id="stop3912" path="l 40.8593,40.8325" style="stop-color:#ff971e;stop-opacity:1"/><stop id="stop3914" path="l -0.0805,-0.0134701" style="stop-color:#ff971e;stop-opacity:1"/></meshpatch><meshpatch id="meshpatch3924"><stop id="stop3918" path="c 10.833,-10.833 25.5257,-16.9189 40.8459,-16.9189"/><stop id="stop3920" path="l 0.0134386,57.6976" style="stop-color:#ff8e15;stop-opacity:1"/><stop id="stop3922" path="l -3.86e-05,0.0538" style="stop-color:#ff8e15;stop-opacity:1"/></meshpatch><meshpatch id="meshpatch3932"><stop id="stop3926" path="c 15.3202,0 30.0129,6.08592 40.8459,16.9189"/><stop id="stop3928" path="l -40.8325,40.8056" style="stop-color:#ff850c;stop-opacity:1"/><stop id="stop3930" path="l 3.86e-05,-0.0269" style="stop-color:#ff850c;stop-opacity:1"/></meshpatch><meshpatch id="meshpatch3940"><stop id="stop3934" path="c 10.833,10.833 16.9189,25.5257 16.9189,40.8459"/><stop id="stop3936" path="l -57.7472,-0.00111881" style="stop-color:#ff7b02;stop-opacity:1"/><stop id="stop3938" path="l -0.0042,-0.0391812" style="stop-color:#ff7b02;stop-opacity:1"/></meshpatch></meshrow></meshgradient><meshgradient id="meshgradient3944" x="761.888" y="96.072" gradientTransform="matrix(0.84736842,0,0,0.84736842,-370.92217,-224.90841)" gradientUnits="userSpaceOnUse"><meshrow id="meshrow15009"><meshpatch id="meshpatch15011"><stop style="stop-color:#ffcb52;stop-opacity:1" id="stop15013" path="c 0,15.3202 -6.08592,30.0129 -16.9189,40.8459"/><stop style="stop-color:#ffc047;stop-opacity:1" id="stop15015" path="l -57.3676,-40.8325"/><stop style="stop-color:#ffc047;stop-opacity:1" id="stop15017" path="l -2.00666e-05,-0.0134074"/><stop style="stop-color:#ffcb52;stop-opacity:1" id="stop15019" path="l 74.2866,7.4e-06"/></meshpatch><meshpatch id="meshpatch15021"><stop id="stop15023" path="c -10.833,10.833 -42.0471,16.9189 -57.3676,16.9189"/><stop style="stop-color:#ffb53c;stop-opacity:1" id="stop15025" path="l 0.0134329,-57.7917"/><stop style="stop-color:#ffb53c;stop-opacity:1" id="stop15027" path="l -0.0134329,0.0403"/></meshpatch><meshpatch id="meshpatch15029"><stop id="stop15031" path="c -15.3202,0 -30.0129,-6.08592 -40.8459,-16.9189"/><stop style="stop-color:#ffac33;stop-opacity:1" id="stop15033" path="l 40.8325,-40.8727"/><stop style="stop-color:#ffac33;stop-opacity:1" id="stop15035" path="l 0.0268329,-0.0001"/></meshpatch><meshpatch id="meshpatch15037"><stop id="stop15039" path="c -10.833,-10.833 -16.9189,-25.5257 -16.9189,-40.8459"/><stop style="stop-color:#ffa229;stop-opacity:1" id="stop15041" path="l 57.6977,-0.0268701"/><stop style="stop-color:#ffa229;stop-opacity:1" id="stop15043" path="l 0.0537,7.01e-05"/></meshpatch><meshpatch id="meshpatch15045"><stop id="stop15047" path="c 0.000117453,-15.3202 6.08604,-30.0129 16.9189,-40.8459"/><stop style="stop-color:#ff971e;stop-opacity:1" id="stop15049" path="l 40.8593,40.8325"/><stop style="stop-color:#ff971e;stop-opacity:1" id="stop15051" path="l -0.0805,-0.0134701"/></meshpatch><meshpatch id="meshpatch15053"><stop id="stop15055" path="c 10.833,-10.833 25.5257,-16.9189 40.8459,-16.9189"/><stop style="stop-color:#ff8e15;stop-opacity:1" id="stop15057" path="l 0.0134386,57.6976"/><stop style="stop-color:#ff8e15;stop-opacity:1" id="stop15059" path="l -3.86e-05,0.0538"/></meshpatch><meshpatch id="meshpatch15061"><stop id="stop15063" path="c 15.3202,4.9738e-14 46.5346,6.08592 57.3676,16.9189"/><stop style="stop-color:#ff850c;stop-opacity:1" id="stop15065" path="l -57.3542,40.8056"/><stop style="stop-color:#ff850c;stop-opacity:1" id="stop15067" path="l 3.86e-05,-0.0269"/></meshpatch><meshpatch id="meshpatch15069"><stop id="stop15071" path="c 10.833,10.833 16.9189,25.5257 16.9189,40.8459"/><stop style="stop-color:#ff7b02;stop-opacity:1" id="stop15073" path="l -74.2689,-0.00111881"/><stop style="stop-color:#ff7b02;stop-opacity:1" id="stop15075" path="l -0.0042,-0.0391812"/></meshpatch></meshrow></meshgradient><mask id="mask4014" maskUnits="userSpaceOnUse"><path style="fill:#fff;fill-opacity:1;stroke:none;stroke-width:9;stroke-linecap:round;stroke-miterlimit:10" id="path4016" stroke-miterlimit="10" d="m 203.329,-172 57.471,0 c 1.657,0 3,1.343 3,3 v 51 c 0,1.657 -1.343,3 -3,3 h -57.471 c -4.865,0 -9.226,-1.934 -12.413,-5.128 -3.187,-3.195 -5.116,-7.567 -5.116,-12.443 v -21.774 c 0,-4.876 1.929,-9.248 5.116,-12.443 3.187,-3.194 7.548,-5.212 12.413,-5.212 z"/></mask><radialGradient id="paint17_angular-3" cx="0" cy="0" r="1" gradientTransform="matrix(0,-33.9,33.9,0,143.9,134.9)" gradientUnits="userSpaceOnUse"><stop id="stop117-5" stop-color="#FFCB52"/><stop id="stop119-6" offset="1" stop-color="#FF7B02"/></radialGradient><radialGradient id="paint15_angular" cx="0" cy="0" r="1" gradientTransform="matrix(0,39,-28.5,0,143.5,224.8)" gradientUnits="userSpaceOnUse"><stop id="stop107" stop-color="#FFCB52"/><stop id="stop109" offset="1" stop-color="#FF7B02"/></radialGradient><mask id="mask11505" maskUnits="userSpaceOnUse"><circle style="opacity:1;vector-effect:none;fill:#fff;fill-opacity:1;stroke:none;stroke-width:6.97193336;stroke-linecap:round;stroke-linejoin:round;stroke-miterlimit:4;stroke-dasharray:none;stroke-dashoffset:0;stroke-opacity:1" id="circle11507" cx="-134.9" cy="-143.9" r="33.9"/></mask><linearGradient id="paint0_linear-3" x1="7.58" x2="279.42" y1="7.58" y2="279.42" gradientTransform="translate(0,2e-6)" gradientUnits="userSpaceOnUse"><stop id="stop1477" stop-color="#F27979"/><stop id="stop1479" offset="1" stop-color="#7D00A3"/></linearGradient><linearGradient id="paint1_linear-6" x1="143.9" x2="143.9" y1="73.8" y2="32" gradientTransform="matrix(0.91266,0,0,0.91266,12.568225,4.620288)" gradientUnits="userSpaceOnUse"><stop id="stop1482" stop-color="#fff"/><stop id="stop1484" offset="1" stop-color="#DDD"/></linearGradient><linearGradient id="paint2_linear-7" x1="143.9" x2="143.9" y1="73.8" y2="32" gradientTransform="matrix(0.91266,0,0,0.91266,12.568225,4.620288)" gradientUnits="userSpaceOnUse"><stop id="stop1487" stop-color="#fff"/><stop id="stop1489" offset="1" stop-color="#F2F2F2" stop-opacity="0"/></linearGradient><linearGradient id="paint3_linear-5" x1="68.499" x2="38.942" y1="67.336" y2="37.779" gradientTransform="matrix(0.91266,0,0,0.91266,4.6919591,4.5903304)" gradientUnits="userSpaceOnUse"><stop id="stop1492" stop-color="#fff"/><stop id="stop1494" offset="1" stop-color="#DDD"/></linearGradient><linearGradient id="paint4_linear-3" x1="68.499" x2="38.942" y1="67.336" y2="37.779" gradientTransform="matrix(0.91266,0,0,0.91266,4.6919591,4.5903304)" gradientUnits="userSpaceOnUse"><stop id="stop1497" stop-color="#fff"/><stop id="stop1499" offset="1" stop-color="#F2F2F2" stop-opacity="0"/></linearGradient><linearGradient id="paint5_linear-5" x1="215.779" x2="245.336" y1="214.778" y2="244.335" gradientTransform="matrix(0.91266,0,0,0.91266,20.136848,20.049467)" gradientUnits="userSpaceOnUse"><stop id="stop1502" stop-color="#fff"/><stop id="stop1504" offset="1" stop-color="#DDD"/></linearGradient><linearGradient id="paint6_linear-6" x1="215.779" x2="245.336" y1="214.778" y2="244.335" gradientTransform="matrix(0.91266,0,0,0.91266,20.136848,20.049467)" gradientUnits="userSpaceOnUse"><stop id="stop1507" stop-color="#fff"/><stop id="stop1509" offset="1" stop-color="#F2F2F2" stop-opacity="0"/></linearGradient><linearGradient id="paint7_linear-2" x1="210" x2="251.8" y1="141.557" y2="141.557" gradientTransform="matrix(0.91266,0,0,0.91266,20.166806,12.36359)" gradientUnits="userSpaceOnUse"><stop id="stop1512" stop-color="#fff"/><stop id="stop1514" offset="1" stop-color="#DDD"/></linearGradient><linearGradient id="paint8_linear-9" x1="210" x2="251.8" y1="141.557" y2="141.557" gradientTransform="matrix(0.91266,0,0,0.91266,20.166806,12.36359)" gradientUnits="userSpaceOnUse"><stop id="stop1517" stop-color="#fff"/><stop id="stop1519" offset="1" stop-color="#F2F2F2" stop-opacity="0"/></linearGradient><linearGradient id="paint9_linear-1" x1="215.779" x2="245.336" y1="67.335" y2="37.778" gradientTransform="matrix(0.91266,0,0,0.91266,20.136848,4.5902867)" gradientUnits="userSpaceOnUse"><stop id="stop1522" stop-color="#fff"/><stop id="stop1524" offset="1" stop-color="#DDD"/></linearGradient><linearGradient id="paint10_linear-2" x1="215.779" x2="245.336" y1="67.335" y2="37.778" gradientTransform="matrix(0.91266,0,0,0.91266,20.136848,4.5902867)" gradientUnits="userSpaceOnUse"><stop id="stop1527" stop-color="#fff"/><stop id="stop1529" offset="1" stop-color="#F2F2F2" stop-opacity="0"/></linearGradient><linearGradient id="paint11_linear-7" x1="68.499" x2="38.942" y1="214.778" y2="244.335" gradientTransform="matrix(0.91266,0,0,0.91266,4.6919176,20.049467)" gradientUnits="userSpaceOnUse"><stop id="stop1532" stop-color="#fff"/><stop id="stop1534" offset="1" stop-color="#DDD"/></linearGradient><linearGradient id="paint12_linear-0" x1="68.499" x2="38.942" y1="214.778" y2="244.335" gradientTransform="matrix(0.91266,0,0,0.91266,4.6919176,20.049467)" gradientUnits="userSpaceOnUse"><stop id="stop1537" stop-color="#fff"/><stop id="stop1539" offset="1" stop-color="#F2F2F2" stop-opacity="0"/></linearGradient><linearGradient id="paint13_linear-9" x1="74.62" x2="32.82" y1="141.557" y2="141.557" gradientTransform="matrix(0.91266,0,0,0.91266,4.6919046,12.36359)" gradientUnits="userSpaceOnUse"><stop id="stop1542" stop-color="#fff"/><stop id="stop1544" offset="1" stop-color="#DDD"/></linearGradient><linearGradient id="paint14_linear-3" x1="74.62" x2="32.82" y1="141.557" y2="141.557" gradientTransform="matrix(0.91266,0,0,0.91266,4.6919046,12.36359)" gradientUnits="userSpaceOnUse"><stop id="stop1547" stop-color="#fff"/><stop id="stop1549" offset="1" stop-color="#F2F2F2" stop-opacity="0"/></linearGradient></defs><path style="fill:url(#paint0_linear-3)" id="path1457" d="M 261.1,287 H 25.9 C 11.6,287 0,275.4 0,261.1 V 25.900002 c 0,-14.3 11.6,-25.9 25.9,-25.9 h 235.2 c 14.3,0 25.9,11.6 25.9,25.9 V 261.1 c 0,14.3 -11.60001,25.9 -25.9,25.9 z"/><rect style="stroke:#1f0029;stroke-width:5;stroke-opacity:.15" id="rect1459" width="177.4" height="177.4" x="53" y="-230.721" rx="6.2" transform="rotate(90)"/><path style="stroke:#1f0029;stroke-width:6;stroke-linecap:round;stroke-linejoin:bevel;stroke-opacity:.15" id="path1461" d="M 57.120995,229.278 221.87799,64.520002 M 62.525995,60.619002 221.28299,219.376 M 52.725995,143 H 239.05899 m -95.338,-86.926998 V 231.093"/><path style="fill:url(#paint1_linear-6);stroke:url(#paint2_linear-7);stroke-width:9;stroke-linecap:round;stroke-miterlimit:10;stroke-dasharray:none" id="path1463" stroke-miterlimit="10" d="m 143.89999,32.000088 c 11.54241,0 20.89991,9.35659 20.89991,20.899914 0,11.542411 -9.3575,20.899914 -20.89991,20.899914 -11.54241,0 -20.89991,-9.357503 -20.89991,-20.899914 0,-11.543324 9.3575,-20.899914 20.89991,-20.899914 z"/><path style="fill:url(#paint3_linear-5);stroke:url(#paint4_linear-3);stroke-width:9;stroke-linecap:round;stroke-miterlimit:10;stroke-dasharray:none" id="path1465" stroke-miterlimit="10" d="m 38.942264,37.778299 c 8.161918,-8.161919 21.394571,-8.161919 29.557402,0 8.161006,8.162831 8.161006,21.395488 0,29.557406 -8.162831,8.161919 -21.395484,8.161919 -29.557402,0 -8.161919,-8.161918 -8.161919,-21.395488 0,-29.557406 z"/><path style="fill:url(#paint5_linear-5);stroke:url(#paint6_linear-6);stroke-width:9;stroke-linecap:round;stroke-miterlimit:10;stroke-dasharray:none" id="path1467" stroke-miterlimit="10" d="m 245.33569,244.33475 c 8.16192,-8.16192 8.16192,-21.39458 0,-29.5565 -8.16192,-8.16192 -21.39549,-8.16192 -29.5574,0 -8.16192,8.16192 -8.16192,21.39458 0,29.5565 8.16191,8.16192 21.39548,8.16192 29.5574,0 z"/><path style="fill:url(#paint7_linear-2);stroke:url(#paint8_linear-9);stroke-width:9;stroke-linecap:round;stroke-miterlimit:10;stroke-dasharray:none" id="path1469" stroke-miterlimit="10" d="m 251.7999,141.557 c 0,-11.54241 -9.3575,-20.89991 -20.8999,-20.89991 -11.54241,0 -20.89991,9.3575 -20.89991,20.89991 0,11.54241 9.3575,20.89991 20.89991,20.89991 11.5424,0 20.8999,-9.3575 20.8999,-20.89991 z"/><path style="fill:url(#paint9_linear-1);stroke:url(#paint10_linear-2);stroke-width:9;stroke-linecap:round;stroke-miterlimit:10;stroke-dasharray:none" id="path1471" stroke-miterlimit="10" d="m 245.33569,37.778255 c 8.16192,8.161918 8.16192,21.394576 0,29.556494 -8.16192,8.161918 -21.39549,8.161918 -29.5574,0 -8.16192,-8.161918 -8.16192,-21.394576 0,-29.556494 8.16191,-8.161918 21.39548,-8.161918 29.5574,0 z"/><path style="fill:url(#paint11_linear-7);stroke:url(#paint12_linear-0);stroke-width:9;stroke-linecap:round;stroke-miterlimit:10;stroke-dasharray:none" id="path1473" stroke-miterlimit="10" d="m 38.942222,244.33475 c -8.162831,-8.16192 -8.162831,-21.39458 0,-29.5565 8.161918,-8.16192 21.394571,-8.16192 29.55649,0 8.161918,8.16192 8.161918,21.39458 0,29.5565 -8.161919,8.16192 -21.394572,8.16192 -29.55649,0 z"/><path style="fill:url(#paint13_linear-9);stroke:url(#paint14_linear-3);stroke-width:9;stroke-linecap:round;stroke-miterlimit:10;stroke-dasharray:none" id="path1475" stroke-miterlimit="10" d="m 32.820086,141.557 c 0,-11.54241 9.357503,-20.89991 20.899909,-20.89991 11.542411,0 20.899914,9.3575 20.899914,20.89991 0,11.54241 -9.357503,20.89991 -20.899914,20.89991 -11.542406,0 -20.899909,-9.3575 -20.899909,-20.89991 z"/><path style="fill:url(#paint15_angular);stroke:none;stroke-width:9;stroke-linecap:round;stroke-miterlimit:10" id="path28" stroke-miterlimit="10" d="M 172,203.329 V 260.8 c 0,1.657 -1.343,3 -3,3 h -51 c -1.657,0 -3,-1.343 -3,-3 v -57.471 c 0,-4.865 1.934,-9.226 5.128,-12.413 3.195,-3.187 7.567,-5.116 12.443,-5.116 h 21.774 c 4.876,0 9.248,1.929 12.443,5.116 3.194,3.187 5.212,7.548 5.212,12.413 z"/><path style="fill:url(#paint17_angular-3);stroke:none;stroke-width:9;stroke-linecap:round;stroke-miterlimit:10" id="path30" stroke-miterlimit="10" d="m 143.9,101 c 18.722,0 33.9,15.177 33.9,33.9 0,18.722 -15.178,33.9 -33.9,33.9 -18.722,0 -33.9,-15.178 -33.9,-33.9 0,-18.723 15.178,-33.9 33.9,-33.9 z"/><circle style="opacity:1;vector-effect:none;fill:url(#meshgradient3944);fill-opacity:1;stroke:none;stroke-width:10.06675053;stroke-linecap:round;stroke-linejoin:round;stroke-miterlimit:4;stroke-dasharray:none;stroke-dashoffset:0;stroke-opacity:1" id="path20172-7" cx="225.729" cy="-143.5" r="48.948" mask="url(#mask4014)" transform="rotate(90)"/><circle style="opacity:1;vector-effect:none;fill:url(#meshgradient3874);fill-opacity:1;stroke:none;stroke-width:7.50248766;stroke-linecap:round;stroke-linejoin:round;stroke-miterlimit:4;stroke-dasharray:none;stroke-dashoffset:0;stroke-opacity:1" id="path20172-5" cx="-134.9" cy="-143.9" r="36.48" mask="url(#mask11505)" transform="rotate(90,-134.89999,134.89999)"/><path style="fill:none;stroke:url(#paint16_linear-9);stroke-width:7;stroke-linecap:round;stroke-miterlimit:10;stroke-dasharray:none" id="path28-2" stroke-miterlimit="10" d="M 172,203.329 V 260.8 c 0,1.657 -1.343,3 -3,3 h -51 c -1.657,0 -3,-1.343 -3,-3 v -57.471 c 0,-4.865 1.934,-9.226 5.128,-12.413 3.195,-3.187 7.567,-5.116 12.443,-5.116 h 21.774 c 4.876,0 9.248,1.929 12.443,5.116 3.194,3.187 5.212,7.548 5.212,12.413 z"/><path style="fill:none;stroke:url(#paint18_linear-6);stroke-width:7;stroke-linecap:round;stroke-miterlimit:10;stroke-dasharray:none" id="path30-3" stroke-miterlimit="10" d="m 143.9,101 c 18.722,0 33.9,15.177 33.9,33.9 0,18.722 -15.178,33.9 -33.9,33.9 -18.722,0 -33.9,-15.178 -33.9,-33.9 0,-18.723 15.178,-33.9 33.9,-33.9 z"/></svg>